<svg width="37" height="36" viewBox="0 0 37 36" version="1.1" xmlns="http://www.w3.org/2000/svg" xmlns:xlink="http://www.w3.org/1999/xlink">
    <title>fifth</title>
    <desc>Created using Figma</desc>
    <g id="Canvas" transform="translate(-10734 -1233)">
        <g id="Product icon">
            <g id="Ellipse 3">
                <use xlink:href="#path0_fill" transform="translate(10734 1233)" fill="#5D9BED" fill-opacity="0.25"/>
            </g>
            <g id="1907">
                <g id="Vector">
                    <use xlink:href="#path1_fill" transform="translate(10751.4 1261.4)" fill="#616466"/>
                </g>
                <g id="Vector">
                    <use xlink:href="#path2_fill" transform="translate(10745 1239)" fill="#FFCE31"/>
                </g>
                <g id="Vector">
                    <use xlink:href="#path3_fill" transform="translate(10749.7 1248.64)" fill="#C79127"/>
                </g>
                <g id="Group">
                    <g id="Vector">
                        <use xlink:href="#path4_fill" transform="translate(10750.1 1258.18)" fill="#94989B"/>
                    </g>
                    <g id="Vector">
                        <use xlink:href="#path5_fill" transform="translate(10750.5 1259.66)" fill="#94989B"/>
                    </g>
                </g>
                <g id="Vector">
                    <use xlink:href="#path6_fill" transform="translate(10750.5 1258.92)" fill="#616466"/>
                </g>
                <g id="Group">
                    <g id="Vector">
                        <use xlink:href="#path7_fill" transform="translate(10750.5 1258.18)" fill="#94989B"/>
                    </g>
                    <g id="Vector">
                        <use xlink:href="#path8_fill" transform="translate(10750.9 1261.13)" fill="#94989B"/>
                    </g>
                </g>
                <g id="Vector">
                    <use xlink:href="#path9_fill" transform="translate(10750.9 1260.39)" fill="#616466"/>
                </g>
                <g id="Vector">
                    <use xlink:href="#path10_fill" transform="translate(10750.9 1259.66)" fill="#94989B"/>
                </g>
            </g>
        </g>
    </g>
    <defs>
        <path id="path0_fill" d="M 36 18C 36 27.9411 27.9411 36 18 36C 8.05887 36 0 27.9411 0 18C 0 8.05887 8.05887 0 18 0C 27.9411 0 36 8.05887 36 18Z"/>
        <path id="path1_fill" d="M 0 0C 0 0.8836 0.7164 1.6 1.6 1.6C 2.4836 1.6 3.2 0.8836 3.2 0L 0 0Z"/>
        <path id="path2_fill" d="M 5.1752 18.4L 10.8252 18.4C 11.1604 16.6748 12.2304 14.9984 13.3512 13.2408C 14.6528 11.2 16 9.0868 16 7.0344C 16 3.1556 12.4108 0 8 0C 3.5892 0 0 3.1556 0 7.0344C 0 9.0868 1.3472 11.2 2.6484 13.2408C 3.77 14.9984 4.8412 16.6752 5.1752 18.4Z"/>
        <path id="path3_fill" d="M 1.12652 2.994C 1.18412 3.2324 1.23572 3.4716 1.29652 3.7028C 1.40252 4.1396 1.50532 4.5616 1.60492 4.9708C 1.97292 6.474 2.29692 7.7652 2.55332 8.756L 2.79092 8.756C 2.58052 7.7508 2.29332 6.4364 1.94892 4.9048C 1.85612 4.4964 1.75972 4.0708 1.66092 3.6336C 1.60852 3.42 1.56332 3.2036 1.51372 2.9808C 1.84652 2.9076 2.57492 2.6596 3.34732 1.8252C 4.12012 2.6596 4.84812 2.9076 5.18092 2.9808C 5.13132 3.2036 5.08612 3.42 5.03372 3.6336C 4.93492 4.0708 4.83892 4.4964 4.74612 4.9048C 4.40132 6.4364 4.11412 7.7508 3.90372 8.756L 4.14132 8.756C 4.39812 7.7652 4.72172 6.474 5.09012 4.9708C 5.18852 4.562 5.29212 4.1396 5.39852 3.7028C 5.45812 3.4716 5.51052 3.232 5.56812 2.994C 5.87052 2.9736 6.15972 2.8796 6.38532 2.6724C 6.61652 2.4448 6.73732 2.1468 6.68292 1.8296C 6.65852 1.6772 6.54492 1.4808 6.32452 1.4132C 6.22292 1.3804 6.12132 1.3732 5.99172 1.406C 5.88452 1.4468 5.80612 1.5068 5.75252 1.5644C 5.53932 1.8012 5.46212 2.0376 5.37452 2.272C 5.33412 2.3904 5.30012 2.5076 5.26852 2.624C 5.26852 2.624 4.92852 2.6504 4.20132 2.1616C 3.79732 1.8896 3.68052 1.6928 3.56332 1.5632C 3.68972 1.4224 3.81092 1.2688 3.90492 1.082C 3.95452 0.978 3.99692 0.8648 4.01132 0.7376C 4.02492 0.6104 4.00212 0.4656 3.92932 0.3416C 3.85612 0.2196 3.75172 0.1068 3.58292 0.0383997C 3.51012 0.0119997 3.42892 2.44141e-07 3.34772 2.44141e-07C 3.26652 2.44141e-07 3.18492 0.0115997 3.11252 0.0383997C 2.94372 0.1068 2.83892 0.2196 2.76612 0.3416C 2.69332 0.466 2.67012 0.6104 2.68412 0.7376C 2.69892 0.8648 2.74092 0.9784 2.79092 1.082C 2.88452 1.2688 3.00612 1.4228 3.13252 1.5632C 3.01532 1.6928 2.89812 1.8896 2.49452 2.1616C 1.76732 2.6508 1.42692 2.624 1.42692 2.624C 1.39572 2.5076 1.36172 2.3904 1.32132 2.272C 1.23332 2.0376 1.15692 1.8012 0.943322 1.5644C 0.889722 1.5064 0.811322 1.4464 0.704122 1.406C 0.574522 1.3732 0.472922 1.3804 0.371322 1.4132C 0.150522 1.4808 0.0369224 1.6772 0.0129224 1.8296C -0.0414776 2.1468 0.0793222 2.4448 0.310522 2.6724C 0.536122 2.8796 0.824522 2.9736 1.12652 2.994ZM 5.74252 2.3768C 5.81812 2.1664 5.91452 1.9372 6.04572 1.7996C 6.07652 1.7648 6.10892 1.7508 6.12492 1.7412C 6.12492 1.742 6.16412 1.7364 6.18892 1.7484C 6.23372 1.7592 6.27572 1.8056 6.29212 1.8936C 6.32412 2.0648 6.24332 2.2856 6.09612 2.4236C 5.99292 2.522 5.83412 2.5904 5.66652 2.6216C 5.69012 2.5396 5.71452 2.4568 5.74252 2.3768ZM 3.10572 0.4952C 3.17132 0.396 3.25772 0.3396 3.34692 0.3396C 3.43612 0.3396 3.52212 0.396 3.58852 0.4952C 3.66652 0.6192 3.63932 0.7876 3.56292 0.9532C 3.50692 1.07 3.42972 1.1812 3.34692 1.288C 3.26372 1.1808 3.18692 1.07 3.13132 0.9528C 3.05492 0.7876 3.02732 0.6188 3.10572 0.4952ZM 0.401722 1.8936C 0.418122 1.8052 0.460122 1.7592 0.505322 1.7484C 0.530122 1.7368 0.569322 1.742 0.569322 1.7412C 0.584922 1.7504 0.617322 1.7648 0.647322 1.7996C 0.779322 1.9376 0.875322 2.1664 0.951322 2.3768C 0.979322 2.4568 1.00332 2.5396 1.02692 2.6216C 0.859722 2.5904 0.700522 2.522 0.597722 2.4236C 0.450522 2.2856 0.369722 2.0644 0.401722 1.8936Z"/>
        <path id="path4_fill" d="M -2.86865e-07 -1.46484e-07L 5.7352 -1.46484e-07L 5.7352 0.736L -2.86865e-07 0.736L -2.86865e-07 -1.46484e-07Z"/>
        <path id="path5_fill" d="M -2.86865e-07 -2.44141e-08L 4.9352 -2.44141e-08L 4.9352 0.736L -2.86865e-07 0.736L -2.86865e-07 -2.44141e-08Z"/>
        <path id="path6_fill" d="M -2.86865e-07 -8.54492e-08L 4.9352 -8.54492e-08L 4.9352 0.736L -2.86865e-07 0.736L -2.86865e-07 -8.54492e-08Z"/>
        <path id="path7_fill" d="M 5.3352 -1.46484e-07L -2.86865e-07 1.472L -2.86865e-07 2.2084L 5.3352 0.736L 5.3352 -1.46484e-07Z"/>
        <path id="path8_fill" d="M -2.86865e-07 -1.2207e-07L 4.1352 -1.2207e-07L 4.1352 0.736L -2.86865e-07 0.736L -2.86865e-07 -1.2207e-07Z"/>
        <path id="path9_fill" d="M -2.86865e-07 -1.83105e-07L 4.1352 -1.83105e-07L 4.1352 0.736L -2.86865e-07 0.736L -2.86865e-07 -1.83105e-07Z"/>
        <path id="path10_fill" d="M 4.5352 -2.44141e-08L -2.86865e-07 1.4724L -2.86865e-07 2.2084L 4.5352 0.7364L 4.5352 -2.44141e-08Z"/>
    </defs>
</svg>
