<svg width="37" height="36" viewBox="0 0 37 36" version="1.1" xmlns="http://www.w3.org/2000/svg" xmlns:xlink="http://www.w3.org/1999/xlink">
    <title>fourth</title>
    <desc>Created using Figma</desc>
    <g id="Canvas" transform="translate(-10734 -1177)">
        <g id="Product icon">
            <g id="Ellipse 3">
                <use xlink:href="#path0_fill" transform="translate(10734 1177)" fill="#5D9BED" fill-opacity="0.25"/>
            </g>
            <g id="2817">
                <g id="Vector">
                    <use xlink:href="#path1_fill" transform="translate(10740 1183)" fill="#BF906C"/>
                </g>
                <g id="Vector">
                    <use xlink:href="#path2_fill" transform="translate(10745.5 1187.04)" fill="#805F47"/>
                </g>
                <g id="Group">
                    <g id="Vector">
                        <use xlink:href="#path3_fill" transform="translate(10746.7 1202.48)" fill="#CC9A72"/>
                    </g>
                    <g id="Vector">
                        <use xlink:href="#path4_fill" transform="translate(10742.1 1199.13)" fill="#CC9A72"/>
                    </g>
                    <g id="Vector">
                        <use xlink:href="#path5_fill" transform="translate(10741.8 1193.31)" fill="#CC9A72"/>
                    </g>
                    <g id="Vector">
                        <use xlink:href="#path6_fill" transform="translate(10750.5 1199.12)" fill="#CC9A72"/>
                    </g>
                    <g id="Vector">
                        <use xlink:href="#path7_fill" transform="translate(10757.3 1187.55)" fill="#CC9A72"/>
                    </g>
                    <g id="Vector">
                        <use xlink:href="#path8_fill" transform="translate(10750.5 1184.59)" fill="#CC9A72"/>
                    </g>
                    <g id="Vector">
                        <use xlink:href="#path9_fill" transform="translate(10746.5 1189.02)" fill="#CC9A72"/>
                    </g>
                    <g id="Vector">
                        <use xlink:href="#path10_fill" transform="translate(10745.8 1195.57)" fill="#CC9A72"/>
                    </g>
                    <g id="Vector">
                        <use xlink:href="#path11_fill" transform="translate(10753.1 1184.23)" fill="#CC9A72"/>
                    </g>
                    <g id="Vector">
                        <use xlink:href="#path12_fill" transform="translate(10753.6 1193.84)" fill="#CC9A72"/>
                    </g>
                    <g id="Vector">
                        <use xlink:href="#path13_fill" transform="translate(10744.5 1193.07)" fill="#CC9A72"/>
                    </g>
                    <g id="Vector">
                        <use xlink:href="#path14_fill" transform="translate(10759.9 1187.2)" fill="#CC9A72"/>
                    </g>
                    <g id="Vector">
                        <use xlink:href="#path15_fill" transform="translate(10750.2 1191.23)" fill="#CC9A72"/>
                    </g>
                </g>
            </g>
        </g>
    </g>
    <defs>
        <path id="path0_fill" d="M 36 18C 36 27.9411 27.9411 36 18 36C 8.05887 36 0 27.9411 0 18C 0 8.05887 8.05887 0 18 0C 27.9411 0 36 8.05887 36 18Z"/>
        <path id="path1_fill" d="M 14.6581 0C 9.70348 0 8.82444 4.35524 5.06854 6.79257C 0.433611 9.86921 -0.805034 13.3854 0.473568 17.2212C 2.11178 22.1758 6.6668 25.612 11.981 22.895C 17.2952 20.1779 19.293 15.2633 22.01 12.7061C 25.3264 9.58951 24.9268 0 14.6581 0Z"/>
        <path id="path2_fill" d="M 17.381 1.52421e-07C 17.6607 1.59825 17.7006 4.67489 16.6618 6.19323C 16.2223 6.87249 15.4631 7.83144 15.0236 8.39082C 16.1024 5.95349 15.583 4.51506 15.583 4.51506C 14.3443 10.2288 10.7882 10.5884 8.47074 14.9437C 8.47074 14.9437 10.5485 13.705 11.907 12.3065C 11.907 12.3065 10.029 16.9015 5.55393 17.4609C 1.39847 17.9803 1.15873 19.2989 -1.52421e-07 19.2989C 1.71812 20.4177 4.19541 20.0181 6.39301 18.8993C 11.7072 16.1823 13.705 11.2677 16.422 8.71048C 18.7795 6.47292 18.9792 2.39738 17.381 1.52421e-07Z"/>
        <path id="path3_fill" d="M 3.48638 0.179283C 3.60625 0.738672 2.88704 1.33802 1.92809 1.5378C 0.969134 1.69762 0.0900945 1.37797 0.0101819 0.818584C -0.109687 0.259195 0.849264 1.05832 1.80822 0.858541C 2.76717 0.658759 3.36651 -0.420061 3.48638 0.179283Z"/>
        <path id="path4_fill" d="M 2.22747 3.32658C 1.78795 3.64623 1.02878 3.20671 0.469396 2.28771C -0.0500361 1.36872 -0.169905 0.369811 0.269615 0.0501602C 0.709134 -0.26949 0.42944 1.00911 0.948872 1.88815C 1.50826 2.80715 2.66699 2.96697 2.22747 3.32658Z"/>
        <path id="path5_fill" d="M 0.918995 3.91572C 0.399563 3.91572 3.81053e-08 3.03668 3.81053e-08 1.95786C 0.0399563 0.879039 0.479476 -3.04842e-07 0.998908 -3.04842e-07C 1.51834 -3.04842e-07 0.639301 0.879039 0.639301 1.95786C 0.599345 3.03668 1.43843 3.91572 0.918995 3.91572Z"/>
        <path id="path6_fill" d="M 3.64069 0.179672C 3.72061 0.779017 2.96144 1.37836 1.96253 1.49823C 0.963621 1.6181 0.0845811 1.25849 0.00466851 0.659148C -0.0752441 0.0598037 0.883708 0.938843 1.88262 0.818974C 2.88152 0.659149 3.56078 -0.419672 3.64069 0.179672Z"/>
        <path id="path7_fill" d="M 0.592634 0.00125543C 1.11207 0.0412117 1.43172 0.92025 1.31185 1.99907C 1.19198 3.07789 0.672546 3.91697 0.153114 3.91697C -0.366318 3.87702 0.592634 3.07789 0.712503 1.99907C 0.792416 0.880294 0.0332462 -0.0387009 0.592634 0.00125543Z"/>
        <path id="path8_fill" d="M 0.0850632 1.92438C -0.154675 1.60473 0.125019 0.965427 0.76432 0.485952C 1.40362 0.00647576 2.16279 -0.153349 2.40253 0.166301C 2.64227 0.485952 1.72327 0.366083 1.08397 0.845559C 0.44467 1.36499 0.324801 2.24403 0.0850632 1.92438Z"/>
        <path id="path9_fill" d="M 0.0482268 1.8909C -0.191511 1.37147 0.487747 0.652259 1.52661 0.252696C 2.60543 -0.146867 3.64429 -0.0669549 3.88403 0.452477C 4.12377 0.971909 2.88512 0.452477 1.8063 0.85204C 0.76744 1.21165 0.287965 2.37038 0.0482268 1.8909Z"/>
        <path id="path10_fill" d="M 3.95045 0.136805C 4.38997 0.776106 3.91049 1.9748 2.83167 2.89379C 1.75285 3.77283 0.514204 3.97261 0.0746843 3.37327C -0.364835 2.73397 1.23342 3.05362 2.31224 2.17458C 3.3511 1.25558 3.47097 -0.502496 3.95045 0.136805Z"/>
        <path id="path11_fill" d="M 3.14248 0.0877194C 3.66191 0.567195 3.38221 1.76588 2.54313 2.72484C 1.70405 3.68379 0.62523 4.08335 0.105798 3.60387C -0.413634 3.1244 1.10471 3.1244 1.94379 2.16545C 2.78287 1.2065 2.62304 -0.391756 3.14248 0.0877194Z"/>
        <path id="path12_fill" d="M 3.3082 0.108227C 3.70776 0.627659 3.3082 1.70648 2.42916 2.46565C 1.55012 3.26478 0.471297 3.46456 0.0717341 2.94513C -0.327829 2.42569 1.03069 2.62548 1.94968 1.82635C 2.82872 1.06718 2.90863 -0.411205 3.3082 0.108227Z"/>
        <path id="path13_fill" d="M 3.64088 0.163194C 3.72079 0.722582 2.96162 1.32193 1.96271 1.52171C 0.963807 1.72149 0.0847678 1.4418 0.00485518 0.882407C -0.0750574 0.323019 0.843937 1.08219 1.84285 0.882407C 2.88171 0.642669 3.56097 -0.396194 3.64088 0.163194Z"/>
        <path id="path14_fill" d="M 1.41388 0.0319122C 1.93331 0.27165 2.05318 1.2306 1.69357 2.18955C 1.33396 3.1485 0.654707 3.74785 0.135275 3.50811C -0.384157 3.26837 0.734619 2.86881 1.09423 1.90986C 1.45383 0.950907 0.894445 -0.207826 1.41388 0.0319122Z"/>
        <path id="path15_fill" d="M 4.28389 0.157527C 4.40375 0.756872 3.52472 1.51604 2.36598 1.9156C 1.16729 2.27521 0.128429 2.11539 0.00856041 1.51604C -0.111309 0.916697 1.04742 1.59595 2.24611 1.19639C 3.40485 0.836785 4.16402 -0.441817 4.28389 0.157527Z"/>
    </defs>
</svg>
