<svg width="37" height="36" viewBox="0 0 37 36" version="1.1" xmlns="http://www.w3.org/2000/svg" xmlns:xlink="http://www.w3.org/1999/xlink">
    <title>Product icon</title>
    <desc>Created using Figma</desc>
    <g id="Canvas" transform="translate(-10734 -1067)">
        <g id="Product icon">
            <g id="Ellipse 3" opacity="0.25">
                <use xlink:href="#path0_fill" transform="translate(10734 1067)" fill="#5D9BED" fill-opacity="0.8"/>
            </g>
            <g id="2826">
                <g id="Vector">
                    <use xlink:href="#path1_fill" transform="translate(10753.5 1073)" fill="#428BC1"/>
                </g>
                <g id="Vector">
                    <use xlink:href="#path2_fill" transform="translate(10751.3 1073)" fill="#E8E8E8"/>
                </g>
                <g id="Vector">
                    <use xlink:href="#path3_fill" transform="translate(10749 1073)" fill="#ED4C5C"/>
                </g>
                <g id="Group">
                    <g id="Vector">
                        <use xlink:href="#path4_fill" transform="translate(10744.2 1080.52)" fill="#B2C1C0"/>
                    </g>
                    <g id="Vector">
                        <use xlink:href="#path5_fill" transform="translate(10747.9 1078.24)" fill="#B2C1C0"/>
                    </g>
                </g>
                <g id="Vector" opacity="0.5">
                    <use xlink:href="#path6_fill" transform="translate(10744.9 1081.24)" fill="#3E4347"/>
                </g>
                <g id="Vector" opacity="0.33">
                    <use xlink:href="#path7_fill" transform="translate(10753.1 1084.04)" fill="#FFFFFF"/>
                </g>
                <g id="Vector">
                    <use xlink:href="#path8_fill" transform="translate(10744 1073)" fill="#ED4C5C"/>
                </g>
                <g id="Vector">
                    <use xlink:href="#path9_fill" transform="translate(10746.8 1073)" fill="#E8E8E8"/>
                </g>
                <g id="Vector" opacity="0.5">
                    <use xlink:href="#path10_fill" transform="translate(10751.6 1074.12)" fill="#3E4347"/>
                </g>
                <g id="Vector">
                    <use xlink:href="#path11_fill" transform="translate(10749 1073)" fill="#428BC1"/>
                </g>
                <g id="Group">
                    <g id="Vector" opacity="0.5">
                        <use xlink:href="#path12_fill" transform="translate(10749.6 1084.8)" fill="#3E4347"/>
                    </g>
                    <g id="Vector" opacity="0.5">
                        <use xlink:href="#path13_fill" transform="translate(10749.6 1092.68)" fill="#3E4347"/>
                    </g>
                    <g id="Vector" opacity="0.5">
                        <use xlink:href="#path14_fill" transform="translate(10750.7 1084.4)" fill="#3E4347"/>
                    </g>
                </g>
                <g id="Group">
                    <g id="Vector" opacity="0.33">
                        <use xlink:href="#path15_fill" transform="translate(10751.1 1092.32)" fill="#FFFFFF"/>
                    </g>
                    <g id="Vector" opacity="0.33">
                        <use xlink:href="#path16_fill" transform="translate(10749.2 1085.44)" fill="#FFFFFF"/>
                    </g>
                    <g id="Vector" opacity="0.33">
                        <use xlink:href="#path17_fill" transform="translate(10749.2 1083.32)" fill="#FFFFFF"/>
                    </g>
                </g>
            </g>
        </g>
    </g>
    <defs>
        <path id="path0_fill" d="M 36 18C 36 27.9411 27.9411 36 18 36C 8.05887 36 0 27.9411 0 18C 0 8.05887 8.05887 0 18 0C 27.9411 0 36 8.05887 36 18Z"/>
        <path id="path1_fill" d="M 4.52 0L -3.05176e-07 6.76L 2.24 6.76L 7.28 0L 4.52 0Z"/>
        <path id="path2_fill" d="M 4.48 0L 3.05176e-07 6.76L 2.24 6.76L 6.76 0L 4.48 0Z"/>
        <path id="path3_fill" d="M 4.48 0L 1.52588e-07 6.76L 2.24 6.76L 6.72 0L 4.48 0Z"/>
        <path id="path4_fill" d="M 8.24 16.48C 12.7908 16.48 16.48 12.7908 16.48 8.24C 16.48 3.68917 12.7908 0 8.24 0C 3.68917 0 0 3.68917 0 8.24C 0 12.7908 3.68917 16.48 8.24 16.48Z"/>
        <path id="path5_fill" d="M 0.36 1.52588e-07C 0.16 1.52588e-07 -3.05176e-07 0.16 -3.05176e-07 0.36L -3.05176e-07 3.72C -3.05176e-07 3.92 0.16 4.08 0.36 4.08L 8.6 4.08C 8.8 4.08 8.96 3.92 8.96 3.72L 8.96 0.36C 8.96 0.16 8.8 1.52588e-07 8.6 1.52588e-07L 0.36 1.52588e-07ZM 8.24 2.64C 8.24 2.84 8.08 3 7.88 3L 1.12 3C 0.92 3 0.76 2.84 0.76 2.64L 0.76 1.12C 0.76 0.92 0.92 0.76 1.12 0.76L 7.88 0.76C 8.08 0.76 8.24 0.92 8.24 1.12L 8.24 2.64Z"/>
        <path id="path6_fill" d="M 0.4 8.48C 0.4 4 3.84 0.36 8.24 0.0400003C 8.04 0.0400003 7.8 1.52588e-07 7.6 1.52588e-07C 3.4 1.52588e-07 7.62939e-08 3.4 7.62939e-08 7.64C 7.62939e-08 8.88 0.32 10.08 0.84 11.12C 0.56 10.28 0.4 9.4 0.4 8.48Z"/>
        <path id="path7_fill" d="M 2.44 11.08C 6.16 8.6 7.28 3.76 5.12 1.52588e-07C 5.24 0.16 5.36 0.32 5.48 0.52C 7.8 3.96 6.84 8.64 3.36 11C 2.32 11.72 1.16 12.12 -3.05176e-07 12.24C 0.88 11.96 1.68 11.6 2.44 11.08Z"/>
        <path id="path8_fill" d="M 5.04 6.76L 7.28 6.76L 2.76 0L -7.10543e-16 0L 5.04 6.76Z"/>
        <path id="path9_fill" d="M 4.52 6.76L 6.76 6.76L 2.28 0L -1.52588e-07 0L 4.52 6.76Z"/>
        <path id="path10_fill" d="M 1.12 7.6294e-08L 1.52588e-07 1.68L 2.64 5.64L 4.12 5.64L 4.52 5.08L 1.12 7.6294e-08Z"/>
        <path id="path11_fill" d="M 4.48 6.76L 6.72 6.76L 2.24 0L 1.52588e-07 0L 4.48 6.76Z"/>
        <path id="path12_fill" d="M 2.64 0C 1.8 0 1.12 0.68 1.12 1.48L 0.04 1.48C 0.04 1.6 -1.52588e-07 1.72 -1.52588e-07 1.84L 1.52 1.84C 1.52 0.999999 2.2 0.32 3.04 0.32C 3.36 0.32 3.64 0.44 3.88 0.6C 3.6 0.28 3.16 0 2.64 0Z"/>
        <path id="path13_fill" d="M 5.6 1.12L 0 1.12L 0 1.52L 6 1.52L 6 3.05176e-07L 5.6 3.05176e-07L 5.6 1.12Z"/>
        <path id="path14_fill" d="M 1.52 4.92C 0.68 4.92 3.05176e-07 5.6 3.05176e-07 6.44L 3.05176e-07 7.96L 0.36 7.96L 0.36 6.84C 0.36 6 1.04 5.32 1.88 5.32C 3.52 5.32 4.88 3.96 4.88 2.32C 4.88 1.4 4.48 0.56 3.8 1.42109e-15C 4.24 0.52 4.52 1.2 4.52 1.92C 4.52 3.56 3.2 4.92 1.52 4.92Z"/>
        <path id="path15_fill" d="M 3.05176e-07 -3.05176e-07L 4.12 -3.05176e-07L 4.12 0.36L 3.05176e-07 0.36L 3.05176e-07 -3.05176e-07Z"/>
        <path id="path16_fill" d="M 3.36 2.76C 4.2 2.76 4.88 2.08 4.88 1.24C 4.88 0.72 4.64 0.279999 4.24 -6.10352e-07C 4.4 0.239999 4.52 0.52 4.52 0.84C 4.52 1.68 3.84 2.36 3 2.36C 1.36 2.36 1.52588e-07 3.72 1.52588e-07 5.36L 1.52588e-07 8.36L 0.36 8.36L 0.36 5.72C 0.36 4.08 1.68 2.76 3.36 2.76Z"/>
        <path id="path17_fill" d="M 3.4 0.36C 4.12 0.36 4.8 0.64 5.32 1.08C 4.76 0.44 3.96 -3.05176e-07 3 -3.05176e-07C 1.36 -3.05176e-07 1.42109e-15 1.36 1.42109e-15 3L 0.4 3C 0.6 1.52 1.84 0.36 3.4 0.36Z"/>
    </defs>
</svg>
