<svg width="37" height="36" viewBox="0 0 37 36" version="1.1" xmlns="http://www.w3.org/2000/svg" xmlns:xlink="http://www.w3.org/1999/xlink">
    <title>customer fourth</title>
    <desc>Created using Figma</desc>
    <g id="Canvas" transform="translate(-11333 -1176)">
        <g id="Product icon">
            <g id="Ellipse 3">
                <use xlink:href="#path0_fill" transform="translate(11333 1176)" fill="#9BB6DA" fill-opacity="0.25"/>
            </g>
            <g id="2798">
                <g id="Vector">
                    <use xlink:href="#path1_fill" transform="translate(11339 1182)" fill="#3E4347"/>
                </g>
                <g id="Group">
                    <g id="Vector">
                        <use xlink:href="#path2_fill" transform="translate(11342.1 1190.46)" fill="#94989B"/>
                    </g>
                    <g id="Vector" opacity="0.5">
                        <use xlink:href="#path3_fill" transform="translate(11343.8 1188.39)" fill="#94989B"/>
                    </g>
                    <g id="Vector" opacity="0.5">
                        <use xlink:href="#path4_fill" transform="translate(11346.2 1187.41)" fill="#94989B"/>
                    </g>
                    <g id="Vector">
                        <use xlink:href="#path5_fill" transform="translate(11346.2 1194.8)" fill="#94989B"/>
                    </g>
                    <g id="Vector">
                        <use xlink:href="#path6_fill" transform="translate(11351.3 1194.79)" fill="#94989B"/>
                    </g>
                </g>
                <g id="Group">
                    <g id="Vector">
                        <use xlink:href="#path7_fill" transform="translate(11347.6 1196.16)" fill="#3E4347"/>
                    </g>
                    <g id="Vector">
                        <use xlink:href="#path8_fill" transform="translate(11352.4 1196.16)" fill="#3E4347"/>
                    </g>
                    <g id="Vector">
                        <use xlink:href="#path9_fill" transform="translate(11347.6 1200.6)" fill="#3E4347"/>
                    </g>
                </g>
                <g id="Vector">
                    <use xlink:href="#path10_fill" transform="translate(11345 1192.56)" fill="#C7E755"/>
                </g>
                <g id="Vector">
                    <use xlink:href="#path11_fill" transform="translate(11346.2 1192.72)" fill="#89664C"/>
                </g>
                <g id="Vector">
                    <use xlink:href="#path12_fill" transform="translate(11352.2 1192.56)" fill="#C7E755"/>
                </g>
                <g id="Vector">
                    <use xlink:href="#path13_fill" transform="translate(11353.4 1192.72)" fill="#89664C"/>
                </g>
                <g id="Group">
                    <g id="Vector">
                        <use xlink:href="#path14_fill" transform="translate(11343.2 1192.36)" fill="#3E4347"/>
                    </g>
                    <g id="Vector">
                        <use xlink:href="#path15_fill" transform="translate(11339 1195.2)" fill="#3E4347"/>
                    </g>
                    <g id="Vector">
                        <use xlink:href="#path16_fill" transform="translate(11353.9 1195.2)" fill="#3E4347"/>
                    </g>
                </g>
            </g>
        </g>
    </g>
    <defs>
        <path id="path0_fill" d="M 36 18C 36 27.9411 27.9411 36 18 36C 8.05887 36 0 27.9411 0 18C 0 8.05887 8.05887 0 18 0C 27.9411 0 36 8.05887 36 18Z"/>
        <path id="path1_fill" d="M 19.9242 5.64C 19.0042 1.68 15.0442 0 12.0042 0C 8.96421 0 5.00421 1.68 4.08421 5.64C 3.16421 9.6 -1.99579 11.52 0.844209 15.4C 2.88421 18.2 9.00421 24 12.0042 24C 15.0042 24 21.1242 18.2 23.1642 15.4C 26.0042 11.52 20.8442 9.6 19.9242 5.64Z"/>
        <path id="path2_fill" d="M 16.6676 0.743123C 13.8676 -1.13688 10.8276 1.14312 8.86755 1.14312C 6.90755 1.14312 3.86755 -1.13688 1.06755 0.743123C -1.73245 2.62312 1.50755 6.66312 4.66755 5.54312C 8.86755 4.02312 5.54755 7.26312 5.02755 8.54312C 4.54755 9.82312 4.06755 13.5431 8.86755 13.5431C 13.6676 13.5431 13.1876 9.82312 12.7076 8.54312C 12.1876 7.26312 8.86755 4.34312 13.0676 5.54312C 16.3876 6.50312 19.4676 2.62312 16.6676 0.743123Z"/>
        <path id="path3_fill" d="M 13.4996 0.210276C 11.6196 -0.509724 9.65957 0.850276 7.17957 0.850276C 4.69957 0.850276 2.69957 -0.509724 0.859566 0.210276C -1.22043 1.01028 0.859566 0.210276 3.01957 0.850276C 5.17957 1.53028 6.09957 1.61028 7.17957 1.61028C 8.25957 1.61028 9.17957 1.53028 11.3396 0.890276C 13.4996 0.210276 15.6196 1.01028 13.4996 0.210276Z"/>
        <path id="path4_fill" d="M 9.0589 0.149881C 7.8189 -0.370119 6.4989 0.629882 4.8189 0.629882C 3.1789 0.629882 1.8589 -0.370119 0.578898 0.149881C -0.821102 0.749881 0.578898 0.149882 2.0189 0.629882C 3.4589 1.10988 4.0589 1.18988 4.8189 1.18988C 5.5389 1.18988 6.1389 1.14988 7.6189 0.629882C 9.0589 0.149882 10.4189 0.749881 9.0589 0.149881Z"/>
        <path id="path5_fill" d="M 3.5894 0.0803956C 2.6294 -0.359604 2.9894 1.1204 1.1094 1.7604C -0.730598 2.4404 -0.0105983 4.0004 1.3094 4.0004C 2.4694 4.0004 3.3894 4.04039 4.0694 3.04039C 4.7894 2.08039 4.5894 0.520396 3.5894 0.0803956Z"/>
        <path id="path6_fill" d="M 3.37864 1.77216C 1.53864 1.13216 1.89864 -0.387838 0.89864 0.0921624C -0.0613601 0.532162 -0.30136 2.09216 0.41864 3.05216C 1.13864 4.01216 2.01864 4.01216 3.17864 4.01216C 4.49864 4.01216 5.21864 2.45216 3.37864 1.77216Z"/>
        <path id="path7_fill" d="M 2.04581 6.10352e-07C 2.08581 0.640001 2.32581 2 1.00581 2.04C -0.154192 2.08 -0.474192 0.88 0.925808 0.84C 1.84581 0.84 2.04581 6.10352e-07 2.04581 6.10352e-07Z"/>
        <path id="path8_fill" d="M 0.0424858 6.10352e-07C 0.00248583 0.640001 -0.237515 2 1.08249 2.04C 2.24249 2.08 2.56249 0.88 1.16249 0.84C 0.242486 0.84 0.0424858 6.10352e-07 0.0424858 6.10352e-07Z"/>
        <path id="path9_fill" d="M 3.44 0.4C 5.33986 0.4 6.88 0.310457 6.88 0.2C 6.88 0.089543 5.33986 0 3.44 0C 1.54014 0 0 0.089543 0 0.2C 0 0.310457 1.54014 0.4 3.44 0.4Z"/>
        <path id="path10_fill" d="M 2.4 2.32C 3.72 2.32 4.8 1.28 4.8 -1.52588e-07L 0 -1.52588e-07C 0 1.28 1.08 2.32 2.4 2.32Z"/>
        <path id="path11_fill" d="M 1.2 1.16C 1.88 1.16 2.4 0.64 2.4 -3.05176e-07L 0 -3.05176e-07C 0 0.64 0.52 1.16 1.2 1.16Z"/>
        <path id="path12_fill" d="M 4.8 -1.52588e-07C 4.8 1.28 3.72 2.32 2.4 2.32C 1.08 2.32 0 1.28 0 -1.52588e-07L 4.8 -1.52588e-07Z"/>
        <path id="path13_fill" d="M 2.4 -3.05176e-07C 2.4 0.64 1.88 1.16 1.2 1.16C 0.52 1.16 0 0.64 0 -3.05176e-07L 2.4 -3.05176e-07Z"/>
        <path id="path14_fill" d="M 15.6 0.28C 15.6 0.44 12.12 0.6 7.8 0.6C 3.48 0.6 0 0.44 0 0.28C 0 0.12 3.48 -1.52588e-07 7.8 -1.52588e-07C 12.12 -1.52588e-07 15.6 0.12 15.6 0.28Z"/>
        <path id="path15_fill" d="M 0 0C 0 0 0 2.48 1.72 4.68L 2.08 3.88C 2.08 3.88 2.12 5.08 3.16 6.48L 3.48 5.28C 3.48 5.28 3.52 7.12 5.12 8.84C 5.12 8.84 5.24 7.64 5.44 7.2C 5.44 7.2 6.32 9.12 8.44 10.4C 8.44 10.4 7.88 9.36 9.12 8.56C 9.08 8.56 3.24 0 0 0Z"/>
        <path id="path16_fill" d="M 9.08 0C 9.08 0 9.08 2.48 7.4 4.68L 7.04 3.88C 7.04 3.88 7 5.08 5.96 6.48L 5.64 5.28C 5.64 5.28 5.6 7.12 4 8.84C 4 8.84 3.88 7.64 3.68 7.2C 3.68 7.2 2.8 9.12 0.68 10.4C 0.68 10.4 1.24 9.36 -3.05176e-07 8.56C -3.05176e-07 8.56 5.84 0 9.08 0Z"/>
    </defs>
</svg>
