<svg width="37" height="36" viewBox="0 0 37 36" version="1.1" xmlns="http://www.w3.org/2000/svg" xmlns:xlink="http://www.w3.org/1999/xlink">
    <title>customer seconda</title>
    <desc>Created using Figma</desc>
    <g id="Canvas" transform="translate(-11334 -1066)">
        <g id="Product icon">
            <g id="Ellipse 3">
                <use xlink:href="#path0_fill" transform="translate(11334 1066)" fill="#9BB6DA" fill-opacity="0.25"/>
            </g>
            <g id="2252">
                <g id="Vector">
                    <use xlink:href="#path1_fill" transform="translate(11341.7 1072)" fill="#DBB471"/>
                </g>
                <g id="Vector">
                    <use xlink:href="#path2_fill" transform="translate(11341 1077.61)" fill="#FFDD67"/>
                </g>
                <g id="Vector">
                    <use xlink:href="#path3_fill" transform="translate(11348.2 1090.39)" fill="#937237"/>
                </g>
                <g id="Vector">
                    <use xlink:href="#path4_fill" transform="translate(11344.2 1082.64)" fill="#F5F5F5"/>
                </g>
                <g id="Vector">
                    <use xlink:href="#path5_fill" transform="translate(11345.4 1082.04)" fill="#0A84A5"/>
                </g>
                <g id="Vector">
                    <use xlink:href="#path6_fill" transform="translate(11346.6 1083.24)" fill="#231F20"/>
                </g>
                <g id="Vector">
                    <use xlink:href="#path7_fill" transform="translate(11344.2 1081.99)" fill="#664E27"/>
                </g>
                <g id="Vector">
                    <use xlink:href="#path8_fill" transform="translate(11353.7 1082.64)" fill="#F5F5F5"/>
                </g>
                <g id="Vector">
                    <use xlink:href="#path5_fill" transform="translate(11354.5 1082.04)" fill="#0A84A5"/>
                </g>
                <g id="Vector">
                    <use xlink:href="#path9_fill" transform="translate(11355.7 1083.24)" fill="#231F20"/>
                </g>
                <g id="Vector">
                    <use xlink:href="#path10_fill" transform="translate(11353.7 1081.99)" fill="#664E27"/>
                </g>
                <g id="Vector">
                    <use xlink:href="#path11_fill" transform="translate(11349.7 1088)" fill="#EBA352"/>
                </g>
            </g>
        </g>
    </g>
    <defs>
        <path id="path0_fill" d="M 36 18C 36 27.9411 27.9411 36 18 36C 8.05887 36 0 27.9411 0 18C 0 8.05887 8.05887 0 18 0C 27.9411 0 36 8.05887 36 18Z"/>
        <path id="path1_fill" d="M 17.2172 2.73177C 13.3018 -2.4621 2.19492 1.41332 1.35591 1.05375C 1.35591 1.05375 1.23605 1.81285 1.67553 2.29229C 1.11619 2.69182 0.436993 2.01262 0.436993 2.01262C 0.436993 2.01262 -0.282158 3.69064 0.476946 4.72941C -0.72164 6.28757 0.716663 14.398 0.716663 14.398L 19.055 14.398C 19.055 14.398 21.2524 8.08545 18.7354 3.73059C 18.216 2.73177 17.6567 3.33106 17.2172 2.73177Z"/>
        <path id="path2_fill" d="M 19.9365 5.43013C 19.8566 5.86961 19.7767 6.26913 19.6568 6.50885C 19.457 6.90838 19.0176 7.1481 19.0176 7.1481C 19.0176 7.1481 19.1374 6.30909 19.0975 5.1105C 18.5381 -2.92002 16.1809 0.915453 10.7473 0.915453C 5.31373 0.915453 2.95651 -2.92002 2.43712 5.15045C 2.39717 6.30909 2.51703 7.18805 2.51703 7.18805C 2.51703 7.18805 2.07755 6.94833 1.87778 6.54881C 1.75793 6.30909 1.67802 5.90956 1.59811 5.47008C 0.878963 5.27031 -3.8102e-08 5.43013 -3.8102e-08 7.54763C -3.8102e-08 8.86607 0.479434 9.90484 2.0376 10.0247C 2.71679 15.2985 3.91538 16.1375 7.87071 18.0153C 8.86953 18.4947 9.54873 18.3748 10.7473 18.3748C 11.9459 18.3748 12.6251 18.4947 13.6639 18.0153C 17.6592 16.1375 18.8577 15.2985 19.497 10.0247C 21.0552 9.90484 21.5346 8.82612 21.5346 7.54763C 21.5346 5.43013 20.6157 5.27031 19.9365 5.43013Z"/>
        <path id="path3_fill" d="M 7.19151 0.359576C 7.19151 1.71797 5.39363 2.39717 3.59576 2.39717C 1.79788 2.39717 0 1.71797 0 0.359576C 0 0.359576 -1.42883e-07 0 0.359575 0C 1.95769 0 5.19387 0 6.83194 0C 7.19151 0 7.19151 0.359576 7.19151 0.359576Z"/>
        <path id="path4_fill" d="M 2.7967 1.52408e-07C 0.799057 1.52408e-07 0 0.719152 0 1.4383C 0 2.15745 1.9051e-07 3.19623 2.63689 3.19623C 5.19387 3.19623 5.5934 2.8766 5.5934 1.79788C 5.5934 1.07873 4.79434 1.52408e-07 2.7967 1.52408e-07Z"/>
        <path id="path5_fill" d="M 1.79788 3.59576C 2.79082 3.59576 3.59576 2.79082 3.59576 1.79788C 3.59576 0.804938 2.79082 0 1.79788 0C 0.804937 0 0 0.804938 0 1.79788C 0 2.79082 0.804937 3.59576 1.79788 3.59576Z"/>
        <path id="path6_fill" d="M 1.19859 0.599293C 1.19859 0.918916 0.918915 1.19858 0.599293 1.19858C 0.27967 1.19858 0 0.918916 0 0.599293C 0 0.27967 0.27967 1.52408e-07 0.599293 1.52408e-07C 0.918915 1.52408e-07 1.19859 0.27967 1.19859 0.599293Z"/>
        <path id="path7_fill" d="M 0 2.05008C 0 -0.746617 5.5934 -0.746617 5.5934 2.44961C 4.79434 0.0524394 0.799057 0.0524394 0 2.05008Z"/>
        <path id="path8_fill" d="M 2.7967 1.52408e-07C 4.79434 1.52408e-07 5.5934 0.719152 5.5934 1.4383C 5.5934 2.15745 5.5934 3.19623 2.95651 3.19623C 0.399529 3.19623 0 2.8766 0 1.79788C 0 1.07873 0.799057 1.52408e-07 2.7967 1.52408e-07Z"/>
        <path id="path9_fill" d="M 0 0.599293C 0 0.918916 0.27967 1.19858 0.599293 1.19858C 0.918915 1.19858 1.19859 0.918916 1.19859 0.599293C 1.19859 0.27967 0.918915 1.52408e-07 0.599293 1.52408e-07C 0.27967 1.52408e-07 0 0.27967 0 0.599293Z"/>
        <path id="path10_fill" d="M 5.5934 2.05008C 5.5934 -0.746617 0 -0.746617 0 2.44961C 0.799057 0.0524394 4.79434 0.0524394 5.5934 2.05008Z"/>
        <path id="path11_fill" d="M 2.00717 1.19859C 0.329148 1.19859 -0.509862 0 0.329147 0C 1.16816 0 2.84618 0 3.68519 0C 4.5242 0 3.68519 1.19859 2.00717 1.19859Z"/>
    </defs>
</svg>
