<svg width="37" height="36" viewBox="0 0 37 36" version="1.1" xmlns="http://www.w3.org/2000/svg" xmlns:xlink="http://www.w3.org/1999/xlink">
    <title>customer fifth</title>
    <desc>Created using Figma</desc>
    <g id="Canvas" transform="translate(-11333 -1232)">
        <g id="Product icon">
            <g id="Ellipse 3">
                <use xlink:href="#path0_fill" transform="translate(11333 1232)" fill="#9BB6DA" fill-opacity="0.25"/>
            </g>
            <g id="2223">
                <g id="Vector">
                    <use xlink:href="#path1_fill" transform="translate(11357.1 1246.66)" fill="#89664C"/>
                </g>
                <g id="Vector">
                    <use xlink:href="#path2_fill" transform="translate(11358.4 1247.95)" fill="#FFC5D3"/>
                </g>
                <g id="Vector">
                    <use xlink:href="#path3_fill" transform="translate(11337 1246.66)" fill="#89664C"/>
                </g>
                <g id="Vector">
                    <use xlink:href="#path4_fill" transform="translate(11338.3 1247.95)" fill="#FFC5D3"/>
                </g>
                <g id="Group">
                    <g id="Vector">
                        <use xlink:href="#path5_fill" transform="translate(11340.1 1238)" fill="#89664C"/>
                    </g>
                    <g id="Vector">
                        <use xlink:href="#path6_fill" transform="translate(11340.1 1239.82)" fill="#89664C"/>
                    </g>
                </g>
                <g id="Vector">
                    <use xlink:href="#path7_fill" transform="translate(11341.6 1243.84)" fill="#E0AC7E"/>
                </g>
                <g id="Group">
                    <g id="Vector">
                        <use xlink:href="#path8_fill" transform="translate(11351.4 1252.11)" fill="#3B302A"/>
                    </g>
                    <g id="Vector">
                        <use xlink:href="#path9_fill" transform="translate(11349.4 1252.11)" fill="#3B302A"/>
                    </g>
                    <g id="Vector">
                        <use xlink:href="#path10_fill" transform="translate(11353.3 1247.77)" fill="#3B302A"/>
                    </g>
                    <g id="Vector">
                        <use xlink:href="#path11_fill" transform="translate(11345.2 1247.77)" fill="#3B302A"/>
                    </g>
                    <g id="Vector">
                        <use xlink:href="#path12_fill" transform="translate(11346.2 1255.74)" fill="#3B302A"/>
                    </g>
                </g>
            </g>
        </g>
    </g>
    <defs>
        <path id="path0_fill" d="M 36 18C 36 27.9411 27.9411 36 18 36C 8.05887 36 0 27.9411 0 18C 0 8.05887 8.05887 0 18 0C 27.9411 0 36 8.05887 36 18Z"/>
        <path id="path1_fill" d="M 3.83499 7.57757C 5.95299 7.57757 7.66998 5.88127 7.66998 3.78878C 7.66998 1.6963 5.95299 0 3.83499 0C 1.71698 0 0 1.6963 0 3.78878C 0 5.88127 1.71698 7.57757 3.83499 7.57757Z"/>
        <path id="path2_fill" d="M 2.49505 4.99011C 3.87303 4.99011 4.9901 3.87303 4.9901 2.49505C 4.9901 1.11707 3.87303 0 2.49505 0C 1.11707 0 0 1.11707 0 2.49505C 0 3.87303 1.11707 4.99011 2.49505 4.99011Z"/>
        <path id="path3_fill" d="M 3.78878 7.57757C 5.88127 7.57757 7.57757 5.88127 7.57757 3.78878C 7.57757 1.6963 5.88127 0 3.78878 0C 1.6963 0 0 1.6963 0 3.78878C 0 5.88127 1.6963 7.57757 3.78878 7.57757Z"/>
        <path id="path4_fill" d="M 2.49505 4.99011C 3.87303 4.99011 4.99011 3.87303 4.99011 2.49505C 4.99011 1.11707 3.87303 0 2.49505 0C 1.11707 0 0 1.11707 0 2.49505C 0 3.87303 1.11707 4.99011 2.49505 4.99011Z"/>
        <path id="path5_fill" d="M 15.9868 2.19139C 16.4951 1.91416 16.8647 1.77555 16.8647 1.77555C 15.3862 1.2673 14.0924 0.943866 12.9373 0.805252C 13.538 0.343205 13.9076 0.204591 13.9076 0.204591C 4.48185 -1.13534 8.81284e-08 4.36301 8.81284e-08 9.2145L 21.439 9.2145C 21.1155 5.79536 19.2211 3.48512 15.9868 2.19139Z"/>
        <path id="path6_fill" d="M 21.5314 8.13202C 21.5314 3.65017 16.7261 0 10.7657 0C 4.80529 0 -8.81284e-08 3.65017 -8.81284e-08 8.13202C -8.81284e-08 9.19473 0.277228 10.165 0.739275 11.0891C 0.277228 12.0132 -8.81284e-08 13.0297 -8.81284e-08 14.0462C -8.81284e-08 18.5281 4.80529 22.1782 10.7657 22.1782C 16.7261 22.1782 21.5314 18.5281 21.5314 14.0462C 21.5314 12.9835 21.2542 12.0132 20.7921 11.0891C 21.2542 10.165 21.5314 9.14853 21.5314 8.13202Z"/>
        <path id="path7_fill" d="M 18.4819 4.38919C 18.4819 -3.4194 9.24094 1.57071 9.24094 1.57071C 9.24094 1.57071 0 -3.4194 0 4.38919C 0 6.56081 1.33994 8.54762 3.46535 9.79514C 2.86469 10.5806 2.49505 11.4585 2.49505 12.4288C 2.49505 15.2473 5.54456 17.5113 9.28714 17.5113C 13.0297 17.5113 16.0792 15.2473 16.0792 12.4288C 16.0792 11.4585 15.7096 10.5806 15.1089 9.79514C 17.1419 8.54762 18.4819 6.56081 18.4819 4.38919Z"/>
        <path id="path8_fill" d="M 0.924093 0.970299C 0.924093 1.47855 0.739274 1.9406 0.462046 1.9406C 0.184818 1.9406 -7.05027e-07 1.52475 -7.05027e-07 0.970299C -7.05027e-07 0.462047 0.184818 -7.05027e-07 0.462046 -7.05027e-07C 0.739274 0.046204 0.924093 0.462047 0.924093 0.970299Z"/>
        <path id="path9_fill" d="M 0.924093 0.970299C 0.924093 1.47855 0.739275 1.9406 0.462047 1.9406C 0.184819 1.9406 -1.76257e-07 1.52475 -1.76257e-07 0.970299C -1.76257e-07 0.462047 0.184819 -7.05027e-07 0.462047 -7.05027e-07C 0.69307 0.046204 0.924093 0.462047 0.924093 0.970299Z"/>
        <path id="path10_fill" d="M 1.61716 4.15842C 2.5103 4.15842 3.23433 3.22753 3.23433 2.07921C 3.23433 0.930895 2.5103 0 1.61716 0C 0.724029 0 0 0.930895 0 2.07921C 0 3.22753 0.724029 4.15842 1.61716 4.15842Z"/>
        <path id="path11_fill" d="M 1.61716 4.15842C 2.5103 4.15842 3.23433 3.22753 3.23433 2.07921C 3.23433 0.930895 2.5103 0 1.61716 0C 0.724029 0 0 0.930895 0 2.07921C 0 3.22753 0.724029 4.15842 1.61716 4.15842Z"/>
        <path id="path12_fill" d="M 9.19169 0.0222467C 9.83855 0.576703 7.85175 3.21037 4.66363 3.25657C 1.47551 3.25657 -0.557498 0.576703 0.135572 0.0222467C 0.320391 -0.116367 2.53821 0.438089 4.66363 0.438089C 6.83525 0.438089 9.05307 -0.116367 9.19169 0.0222467Z"/>
    </defs>
</svg>
