<svg width="37" height="36" viewBox="0 0 37 36" version="1.1" xmlns="http://www.w3.org/2000/svg" xmlns:xlink="http://www.w3.org/1999/xlink">
    <title>customer third</title>
    <desc>Created using Figma</desc>
    <g id="Canvas" transform="translate(-11334 -1122)">
        <g id="Product icon">
            <g id="Ellipse 3">
                <use xlink:href="#path0_fill" transform="translate(11334 1122)" fill="#9BB6DA" fill-opacity="0.25"/>
            </g>
            <g id="2273">
                <g id="Vector">
                    <use xlink:href="#path1_fill" transform="translate(11342.8 1142.06)" fill="#FFDD67"/>
                </g>
                <g id="Vector">
                    <use xlink:href="#path2_fill" transform="translate(11343.9 1142.66)" fill="#454749"/>
                </g>
                <g id="Group">
                    <g id="Vector">
                        <use xlink:href="#path3_fill" transform="translate(11353.7 1143.51)" fill="#FFFFFF"/>
                    </g>
                    <g id="Vector">
                        <use xlink:href="#path3_fill" transform="translate(11346.1 1143.51)" fill="#FFFFFF"/>
                    </g>
                </g>
                <g id="Group">
                    <g id="Vector">
                        <use xlink:href="#path4_fill" transform="translate(11349.7 1148.79)" fill="#664E27"/>
                    </g>
                    <g id="Vector">
                        <use xlink:href="#path5_fill" transform="translate(11354.3 1144.11)" fill="#664E27"/>
                    </g>
                </g>
                <g id="Vector">
                    <use xlink:href="#path6_fill" transform="translate(11355.3 1145.15)" fill="#231F20"/>
                </g>
                <g id="Vector">
                    <use xlink:href="#path5_fill" transform="translate(11346.7 1144.11)" fill="#664E27"/>
                </g>
                <g id="Vector">
                    <use xlink:href="#path6_fill" transform="translate(11347.7 1145.15)" fill="#231F20"/>
                </g>
                <g id="Vector">
                    <use xlink:href="#path7_fill" transform="translate(11340 1128)" fill="#454749"/>
                </g>
            </g>
        </g>
    </g>
    <defs>
        <path id="path0_fill" d="M 36 18C 36 27.9411 27.9411 36 18 36C 8.05887 36 0 27.9411 0 18C 0 8.05887 8.05887 0 18 0C 27.9411 0 36 8.05887 36 18Z"/>
        <path id="path1_fill" d="M 17.36 2.72454C 16.08 2.24374 16.52 -6.11371e-07 16.52 -6.11371e-07L 1.88 -6.11371e-07C 1.88 -6.11371e-07 2.32 2.24374 1.04 2.72454C 1.04 2.72454 1.42109e-15 2.60434 1.42109e-15 3.80634C 1.42109e-15 5.28881 1.08 5.00835 1.08 5.00835C 1.08 7.25209 3.36 9.57596 9.2 9.57596C 15.04 9.57596 17.32 7.21202 17.32 5.00835C 17.32 5.00835 18.4 5.24875 18.4 3.80634C 18.4 2.60434 17.36 2.72454 17.36 2.72454Z"/>
        <path id="path2_fill" d="M 15.48 -6.11371e-07L 15.48 4.36728C 15.48 6.37062 13.4 8.53422 8.12 8.53422C 2.84 8.53422 0.76 6.41068 0.76 4.36728L 0.76 -6.11371e-07L 7.6294e-08 -6.11371e-07L 7.6294e-08 4.76795C 7.6294e-08 7.01169 2.28 9.33556 8.12 9.33556C 13.96 9.33556 16.24 6.97162 16.24 4.76795L 16.24 -6.11371e-07L 15.48 -6.11371e-07Z"/>
        <path id="path3_fill" d="M 2.12 4.24708C 3.29084 4.24708 4.24 3.29634 4.24 2.12354C 4.24 0.950741 3.29084 0 2.12 0C 0.949156 0 0 0.950741 0 2.12354C 0 3.29634 0.949156 4.24708 2.12 4.24708Z"/>
        <path id="path4_fill" d="M 0.08 6.11371e-07C 0.04 0.0400674 -3.05176e-07 0.120201 -3.05176e-07 0.200335C -3.05176e-07 0.721203 1.04 1.36227 2.32 1.36227C 3.6 1.36227 4.64 0.721203 4.64 0.200335C 4.64 0.120201 4.64 0.0400674 4.6 6.11371e-07C 4.6 6.11371e-07 3.6 0.440735 2.36 0.440735C 1.04 0.440735 0.08 6.11371e-07 0.08 6.11371e-07Z"/>
        <path id="path5_fill" d="M 1.52 3.04507C 2.35947 3.04507 3.04 2.36341 3.04 1.52254C 3.04 0.681663 2.35947 0 1.52 0C 0.680527 0 0 0.681663 0 1.52254C 0 2.36341 0.680527 3.04507 1.52 3.04507Z"/>
        <path id="path6_fill" d="M 0.48 0.961603C 0.745097 0.961603 0.96 0.746341 0.96 0.480801C 0.96 0.215262 0.745097 0 0.48 0C 0.214903 0 0 0.215262 0 0.480801C 0 0.746341 0.214903 0.961603 0.48 0.961603Z"/>
        <path id="path7_fill" d="M 22.12 13.9432C 23.16 13.8631 24 13.1018 24 13.1018C 23.44 12.9015 22.92 12.0601 22.44 11.8598C 22.96 11.7796 23.4 11.0184 23.92 10.6978C 23.64 10.6177 22.64 9.93656 22.32 9.85643C 22.84 9.61603 23.36 9.21536 23.84 8.73456C 23.4 8.69449 22.72 7.85309 22.48 7.85309C 23.36 7.45242 23.76 6.69115 23.76 6.69115C 23.36 6.73122 22.84 6.01002 22.36 5.96995C 23.32 5.36895 23.24 4.24708 23.24 4.24708C 22.68 4.60768 21.84 4.32721 21.6 4.40735C 22.08 3.64608 21.88 2.64441 21.88 2.64441C 21.48 3.16528 20.92 2.96494 20.64 3.12521C 20.76 2.76461 20.4 2.04341 20.52 1.60267C 20.12 2.00334 19.36 1.96327 19.08 2.44407C 19.16 1.96327 18.8 1.28214 18.76 0.721202C 18.44 1.0818 17.72 1.60267 17.6 1.88314C 17.56 1.48247 17.04 0.921536 16.88 0.480801C 16.76 0.761269 16.08 1.52254 15.96 1.72287C 15.88 1.04174 15.76 0.961603 15.48 0.480801C 15.4 0.801336 14.72 1.16194 14.52 1.72287C 14.36 0.921536 13.96 0.480801 13.76 0.160267C 13.64 0.560935 12.96 1.12187 12.88 1.40234C 12.72 0.841402 12 2.49105e-15 12 2.49105e-15C 12 2.49105e-15 11.28 0.841402 11.12 1.40234C 11.04 1.16194 10.36 0.560935 10.24 0.160267C 10.08 0.480801 9.64 0.921536 9.48 1.72287C 9.32 1.16194 8.64 0.841402 8.52 0.480801C 8.24 0.961603 8.12 1.04174 8.04 1.72287C 7.92 1.52254 7.24 0.801336 7.12 0.480801C 6.96 0.881469 6.48 1.4424 6.4 1.88314C 6.28 1.60267 5.56 1.0818 5.28 0.761269C 5.2 1.3222 4.84 2.00334 4.96 2.48414C 4.68 1.96327 3.96 2.00334 3.56 1.60267C 3.68 2.04341 3.32 2.72454 3.44 3.12521C 3.12 2.96494 2.56 3.16528 2.16 2.64441C 2.16 2.64441 1.96 3.60601 2.44 4.40735C 2.2 4.32721 1.36 4.56761 0.8 4.24708C 0.8 4.24708 0.72 5.36895 1.68 5.96995C 1.2 6.01002 0.64 6.69115 0.24 6.69115C 0.24 6.69115 0.64 7.45242 1.52 7.85309C 1.32 7.85309 0.6 8.73456 0.16 8.73456C 0.64 9.21536 1.12 9.61603 1.68 9.85643C 1.36 9.93656 0.36 10.6177 0.08 10.6978C 0.6 11.0184 1.04 11.7796 1.56 11.8598C 1.08 12.0601 0.56 12.9015 -6.92779e-15 13.1018C -6.92779e-15 13.1018 0.84 13.8631 1.88 13.9432C 1.44 14.1035 1.68 14.9449 0.6 15.7462C 1.92 15.5058 2.08 15.9466 3.28 15.3456C 3.28 15.3456 3.48 16.2671 2.92 16.7078C 2.92 16.7078 4.72 17.429 5.88 15.1052C 5.8 15.586 6.64 15.8264 6.88 16.7479C 7.96 15.7062 8.12 14.7045 8.12 14.7045C 8.28 15.8664 9.76 16.3072 9.72 16.788C 10.2 16.4274 10.92 15.9065 11.04 15.1452C 11.76 15.9466 11.52 17.1486 11.52 17.1486C 11.52 17.1486 13.04 16.6277 13.48 15.1452C 13.56 15.9065 13.88 16.3873 14.32 16.7479C 14.28 16.2671 15.76 15.8264 15.92 14.6644C 15.92 14.6644 16.08 15.6661 17.16 16.7078C 17.36 15.7462 18.2 15.5459 18.16 15.0651C 19.32 17.389 21.12 16.6678 21.12 16.6678C 20.56 16.227 20.8 15.3055 20.8 15.3055C 22 15.9065 22.16 15.4658 23.48 15.7062C 22.32 14.9449 22.56 14.1035 22.12 13.9432Z"/>
    </defs>
</svg>
